<svg width="20" height="20" viewBox="0 0 20 20" xmlns="http://www.w3.org/2000/svg">
  <!-- AI Brain Icon -->
  <defs>
    <linearGradient id="aiGradient" x1="0%" y1="0%" x2="100%" y2="100%">
      <stop offset="0%" style="stop-color:#4285f4;stop-opacity:1" />
      <stop offset="100%" style="stop-color:#34a853;stop-opacity:1" />
    </linearGradient>
  </defs>
  
  <!-- Brain outline -->
  <path d="M10 2C7.5 2 5.5 3.8 5.5 6c0 0.5 0.1 1 0.3 1.4C5.3 7.6 5 7.8 4.8 8.2c-0.4 0.8-0.3 1.8 0.2 2.5C5.2 11.2 5.5 11.8 5.5 12.5c0 1.4 1.1 2.5 2.5 2.5h4c1.4 0 2.5-1.1 2.5-2.5c0-0.7 0.3-1.3 0.5-1.8c0.5-0.7 0.6-1.7 0.2-2.5c-0.2-0.4-0.5-0.6-0.8-0.8C14.4 7 14.5 6.5 14.5 6c0-2.2-2-4-4.5-4z" 
        fill="url(#aiGradient)" stroke="#1a73e8" stroke-width="0.5"/>
  
  <!-- Circuit patterns inside -->
  <g fill="#ffffff" opacity="0.8">
    <!-- Neural network nodes -->
    <circle cx="8" cy="6.5" r="0.8"/>
    <circle cx="12" cy="6.5" r="0.8"/>
    <circle cx="10" cy="8.5" r="0.8"/>
    <circle cx="7" cy="10" r="0.8"/>
    <circle cx="13" cy="10" r="0.8"/>
    
    <!-- Connections -->
    <line x1="8" y1="6.5" x2="10" y2="8.5" stroke="#ffffff" stroke-width="0.8" opacity="0.6"/>
    <line x1="12" y1="6.5" x2="10" y2="8.5" stroke="#ffffff" stroke-width="0.8" opacity="0.6"/>
    <line x1="10" y1="8.5" x2="7" y2="10" stroke="#ffffff" stroke-width="0.8" opacity="0.6"/>
    <line x1="10" y1="8.5" x2="13" y2="10" stroke="#ffffff" stroke-width="0.8" opacity="0.6"/>
  </g>
  
  <!-- AI text -->
  <text x="10" y="17.5" font-family="Arial, sans-serif" font-size="3.5" font-weight="bold" 
        text-anchor="middle" fill="#1a73e8">AI</text>
</svg>